<?xml version="1.0" encoding="utf-8"?>
<!-- Generator: Adobe Illustrator 23.0.1, SVG Export Plug-In . SVG Version: 6.00 Build 0)  -->
<svg version="1.1"
	 id="svg56" inkscape:version="1.2 (dc2aedaf03, 2022-05-15)" sodipodi:docname="Logo_finaal.svg" xmlns:cc="http://creativecommons.org/ns#" xmlns:dc="http://purl.org/dc/elements/1.1/" xmlns:inkscape="http://www.inkscape.org/namespaces/inkscape" xmlns:rdf="http://www.w3.org/1999/02/22-rdf-syntax-ns#" xmlns:sodipodi="http://sodipodi.sourceforge.net/DTD/sodipodi-0.dtd" xmlns:svg="http://www.w3.org/2000/svg"
	 xmlns="http://www.w3.org/2000/svg" xmlns:xlink="http://www.w3.org/1999/xlink" x="0px" y="0px" viewBox="0 0 2042.7 333.7"
	 style="enable-background:new 0 0 2042.7 333.7;" xml:space="preserve">
<style type="text/css">
	.st0{enable-background:new    ;}
	.st1{fill:#FFFFFF;}
	.st2{fill-rule:evenodd;clip-rule:evenodd;fill:#FFFFFF;}
</style>
<sodipodi:namedview  bordercolor="#666666" borderopacity="1" gridtolerance="10" guidetolerance="10" id="namedview58" inkscape:current-layer="svg56" inkscape:cx="825.9007" inkscape:cy="-531.74429" inkscape:deskcolor="#d1d1d1" inkscape:guide-bbox="true" inkscape:pagecheckerboard="0" inkscape:pageopacity="0" inkscape:pageshadow="2" inkscape:showpageshadow="2" inkscape:window-height="1017" inkscape:window-maximized="1" inkscape:window-width="1920" inkscape:window-x="-8" inkscape:window-y="-8" inkscape:zoom="0.08838835" objecttolerance="10" pagecolor="#ffffff" showgrid="false" showguides="true">
	<sodipodi:guide  id="guide1067" inkscape:locked="false" orientation="0,1" position="294.15641,4627.3067"></sodipodi:guide>
	<sodipodi:guide  id="guide1069" inkscape:locked="false" orientation="0,1" position="294.15641,4627.3067"></sodipodi:guide>
	<sodipodi:guide  id="guide1097" inkscape:locked="false" orientation="0,1" position="45.254833,3088.6423"></sodipodi:guide>
	<sodipodi:guide  id="guide1099" inkscape:locked="false" orientation="0,1" position="294.15641,4627.3067"></sodipodi:guide>
</sodipodi:namedview>
<g id="flowRoot1013">
</g>
<g id="flowRoot1378">
</g>
<g id="flowRoot1386">
</g>
<g class="st0">
	<path class="st1" d="M140.2,116.4l-19.4,20.1c-16.2-15.7-32-23.5-47.4-23.5c-9.8,0-18.2,3.2-25.2,9.7s-10.5,14-10.5,22.7
		c0,7.6,2.9,14.9,8.7,21.8c5.8,7.1,17.9,15.3,36.3,24.8c22.5,11.7,37.8,22.9,45.9,33.7c7.9,10.9,11.9,23.2,11.9,36.9
		c0,19.3-6.8,35.6-20.3,49c-13.6,13.4-30.5,20.1-50.8,20.1c-13.6,0-26.5-3-38.8-8.9S8.1,308.8,0,298.4l19-21.6
		C34.3,294.2,50.7,303,68,303c12.1,0,22.4-3.9,30.9-11.7c8.5-7.8,12.8-16.9,12.8-27.4c0-8.6-2.8-16.3-8.4-23.1
		c-5.6-6.6-18.3-15-38.1-25c-21.2-11-35.6-21.8-43.3-32.5c-7.6-10.7-11.5-22.8-11.5-36.5c0-17.8,6.1-32.7,18.3-44.5
		c12.2-11.7,27.6-17.6,46.2-17.6C96.5,84.7,118.3,95.3,140.2,116.4z"/>
	<path class="st1" d="M477.7,61.4l-24.6,23.3c-17.7-17.4-37.1-30.6-58.2-39.6s-41.6-13.5-61.6-13.5c-24.9,0-48.6,6.1-71.1,18.4
		c-22.5,12.2-40,28.8-52.4,49.8c-12.4,20.9-18.6,43.1-18.6,66.4c0,23.9,6.4,46.6,19.2,68.1s30.5,38.4,53.1,50.7
		c22.6,12.3,47.3,18.5,74.3,18.5c32.7,0,60.3-9.2,82.9-27.6s36-42.3,40.2-71.7H359.6v-30.7h136.9c-0.3,49.1-14.9,88-43.7,116.9
		c-28.9,28.9-67.5,43.3-115.8,43.3c-58.7,0-105.2-20-139.5-60c-26.3-30.8-39.5-66.4-39.5-106.9c0-30.1,7.6-58.1,22.7-84
		s35.8-46.2,62.2-60.8c26.2-14.6,56-21.9,89.3-21.9c26.9,0,52.2,4.9,76,14.6S455.1,39.9,477.7,61.4z"/>
	<path class="st1" d="M520,0.1h30.2v325.6H520V0.1z"/>
</g>
<g class="st0">
	<path class="st1" d="M833.2,325.6V0h30.2v131c12.7-15.5,26.8-27.2,42.5-34.9s32.9-11.5,51.5-11.5c33.2,0,61.6,12.1,85.1,36.2
		s35.3,53.4,35.3,87.8c0,34-11.9,63-35.6,87c-23.7,24-52.3,36.1-85.6,36.1c-19.1,0-36.4-4.1-52-12.3c-15.5-8.2-29.3-20.5-41.2-36.9
		v43.2h-30.2V325.6z M954.1,302.5c16.8,0,32.3-4.1,46.5-12.4s25.5-19.9,33.9-34.9s12.6-30.8,12.6-47.5s-4.2-32.6-12.7-47.7
		c-8.5-15.1-19.9-26.9-34.1-35.3c-14.3-8.4-29.5-12.6-45.8-12.6c-16.5,0-32.2,4.2-47.1,12.6c-14.9,8.4-26.3,19.8-34.2,34
		c-8,14.2-12,30.3-12,48.1c0,27.2,8.9,49.9,26.8,68.2C906,293.3,928,302.5,954.1,302.5z"/>
	<path class="st1" d="M1303.2,247.6l25.5,13.4c-8.4,16.4-18,29.7-29,39.7c-10.9,10.1-23.3,17.7-37,23s-29.2,7.9-46.5,7.9
		c-38.3,0-68.3-12.6-89.9-37.7s-32.4-53.5-32.4-85.2c0-29.8,9.1-56.3,27.4-79.7c23.2-29.6,54.2-44.5,93.1-44.5
		c40,0,72,15.2,95.9,45.6c17,21.4,25.6,48.2,25.9,80.3h-211.4c0.6,27.3,9.3,49.6,26.2,67.1c16.9,17.4,37.7,26.2,62.5,26.2
		c12,0,23.6-2.1,34.9-6.2c11.3-4.2,20.9-9.7,28.9-16.6C1285.4,274.1,1294,263,1303.2,247.6z M1303.2,184.4c-4-16.1-9.9-29-17.6-38.6
		s-17.9-17.4-30.6-23.3c-12.7-5.9-26-8.9-40-8.9c-23.1,0-42.9,7.4-59.4,22.2c-12.1,10.8-21.3,27-27.5,48.6H1303.2z"/>
	<path class="st1" d="M1455.9,0h30.2v325.6h-30.2V0z"/>
	<path class="st1" d="M1755.5,90.7v234.9h-29.8v-40.4c-12.7,15.4-26.9,27-42.6,34.8c-15.8,7.8-33,11.7-51.7,11.7
		c-33.2,0-61.6-12.1-85.2-36.2c-23.5-24.1-35.3-53.4-35.3-88c0-33.8,11.9-62.8,35.6-86.8s52.3-36.1,85.7-36.1
		c19.3,0,36.7,4.1,52.4,12.3c15.6,8.2,29.3,20.5,41.1,36.9V90.7H1755.5z M1634.7,113.8c-16.8,0-32.3,4.1-46.6,12.4
		c-14.2,8.3-25.6,19.9-34,34.8c-8.4,15-12.6,30.8-12.6,47.4c0,16.5,4.2,32.4,12.7,47.4c8.5,15.1,19.9,26.8,34.2,35.3
		c14.3,8.4,29.7,12.6,46,12.6c16.5,0,32.2-4.2,47-12.5s26.2-19.6,34.2-33.9c8-14.2,12-30.3,12-48.1c0-27.2-8.9-49.9-26.8-68.1
		C1682.9,122.9,1660.9,113.8,1634.7,113.8z"/>
	<path class="st1" d="M1798.1,325.6V0h30.2v131c12.6-15.5,26.8-27.2,42.5-34.9s32.9-11.5,51.5-11.5c33.2,0,61.6,12.1,85.1,36.2
		s35.3,53.4,35.3,87.8c0,34-11.9,63-35.6,87s-52.3,36.1-85.6,36.1c-19.1,0-36.4-4.1-52-12.3c-15.5-8.2-29.3-20.5-41.2-36.9v43.2
		h-30.2V325.6z M1919,302.5c16.8,0,32.3-4.1,46.5-12.4s25.5-19.9,33.9-34.9s12.6-30.8,12.6-47.5s-4.2-32.6-12.7-47.7
		c-8.5-15.1-19.9-26.9-34.1-35.3c-14.3-8.4-29.5-12.6-45.8-12.6c-16.5,0-32.2,4.2-47.1,12.6s-26.3,19.8-34.2,34
		c-8,14.2-12,30.3-12,48.1c0,27.2,8.9,49.9,26.8,68.2C1870.8,293.3,1892.8,302.5,1919,302.5z"/>
</g>
<g id="g1029" transform="matrix(0.95636268,0,0,0.95636268,-212.80076,1868.5686)" inkscape:export-filename="C:\Users\u0076217\Box Sync\17. sGlobe\Promo\Logo\sGlobe lab w text_blue background2.png" inkscape:export-xdpi="1000" inkscape:export-ydpi="1000">
	
		<path id="path1019" inkscape:connector-curvature="0" inkscape:export-filename="C:\Users\u0076217\Box Sync\17. sGlobe\Promo\Logo\sGlobe_short_white_large.png" inkscape:export-xdpi="1000" inkscape:export-ydpi="1000" sodipodi:nodetypes="cssscccccccc" class="st1" d="
		M1073.2-1758.5c-1.8-10.8-5.1-21.5-9.8-31.9c-29.6-65.1-106.4-94-171.6-64.4c-65.1,29.6-94,106.4-64.4,171.6
		c6,13.2,13.9,24.8,23.2,34.9c1.4-0.9,1.6-2.5,2-3.9c-5.8-7-10.7-14.8-14.5-23.1c-23.6-51.9-0.6-113.1,51.3-136.6l0,0
		c51.9-23.6,113.1-0.6,136.6,51.3c1.7,3.9,3.2,7.9,4.5,12C1046.4-1750.6,1060.1-1753.9,1073.2-1758.5L1073.2-1758.5z"/>
	
		<path id="path1021" inkscape:connector-curvature="0" inkscape:export-filename="C:\Users\u0076217\Box Sync\17. sGlobe\Promo\Logo\sGlobe_short_white_large.png" inkscape:export-xdpi="1000" inkscape:export-ydpi="1000" class="st2" d="
		M1069.8-1751.6c-43,15.5-89.9,6.1-133.9,17c-23.1,5.3-44.4,18.6-57.9,38c-11,15.4-18,33.3-22.9,51.5c25.1-15.9,53.9-25.6,83.5-28.4
		c24.9-2.7,51.4-2,74-14.2c26.2-14,44-39.5,58.9-64.6C1070.9-1752,1070.3-1751.8,1069.8-1751.6L1069.8-1751.6z"/>
	
		<path id="path1023" inkscape:connector-curvature="0" inkscape:export-filename="C:\Users\u0076217\Box Sync\17. sGlobe\Promo\Logo\sGlobe_short_white_large.png" inkscape:export-xdpi="1000" inkscape:export-ydpi="1000" class="st2" d="
		M1072.6-1742.3c-15,24.3-33,48.7-59.3,61.6c-24.6,12.2-52.9,9.9-79.3,13.6c-26.4,3.2-51.9,12.7-74.4,27
		c28.4,25.8,69,37.8,106.9,31.3c38.4-6,73.3-30.8,91.8-64.8c11.9-21.5,17.2-46.3,15.6-70.8C1073.5-1743.7,1073-1743,1072.6-1742.3
		L1072.6-1742.3z"/>
	
		<path id="path1025" inkscape:connector-curvature="0" inkscape:export-filename="C:\Users\u0076217\Box Sync\17. sGlobe\Promo\Logo\sGlobe_short_white_large.png" inkscape:export-xdpi="1000" inkscape:export-ydpi="1000" sodipodi:nodetypes="cssscccccccc" class="st1" d="
		M1073.2-1758.5c-1.8-10.8-5.1-21.5-9.8-31.9c-29.6-65.1-106.4-94-171.6-64.4c-65.1,29.6-94,106.4-64.4,171.6
		c6,13.2,13.9,24.8,23.2,34.9c1.4-0.9,1.6-2.5,2-3.9c-5.8-7-10.7-14.8-14.5-23.1c-23.6-51.9-0.6-113.1,51.3-136.6l0,0
		c51.9-23.6,113.1-0.6,136.6,51.3c1.7,3.9,3.2,7.9,4.5,12C1046.4-1750.6,1060.1-1753.9,1073.2-1758.5L1073.2-1758.5z"/>
	
		<path id="path1027" inkscape:connector-curvature="0" inkscape:export-filename="C:\Users\u0076217\Box Sync\17. sGlobe\Promo\Logo\sGlobe_short_white_large.png" inkscape:export-xdpi="1000" inkscape:export-ydpi="1000" class="st2" d="
		M1072.6-1742.3c-15,24.3-33,48.7-59.3,61.6c-24.6,12.2-52.9,9.9-79.3,13.6c-26.4,3.2-51.9,12.7-74.4,27
		c28.4,25.8,69,37.8,106.9,31.3c38.4-6,73.3-30.8,91.8-64.8c11.9-21.5,17.2-46.3,15.6-70.8C1073.5-1743.7,1073-1743,1072.6-1742.3
		L1072.6-1742.3z"/>
</g>
<g id="flowRoot1101">
</g>
</svg>
